<?xml version="1.0" encoding="UTF-8"?>
<svg xmlns="http://www.w3.org/2000/svg" xmlns:xlink="http://www.w3.org/1999/xlink" width="3000" height="1686" viewBox="0 0 3000 1686">
<path fill-rule="nonzero" fill="rgb(100%, 85.9375%, 77.34375%)" fill-opacity="1" d="M 3.789062 1685.367188 L 3000 1685.367188 L 3000 -0.00390625 L 3.789062 -0.00390625 Z M 3.789062 1685.367188 "/>
<path fill-rule="nonzero" fill="rgb(100%, 91.40625%, 86.326599%)" fill-opacity="1" d="M 2826.921875 263.21875 C 2826.921875 351.578125 2755.289062 423.210938 2666.929688 423.210938 C 2624.488281 423.210938 2583.800781 406.359375 2553.789062 376.351562 C 2523.789062 346.339844 2506.929688 305.648438 2506.929688 263.21875 C 2506.929688 220.78125 2523.789062 180.089844 2553.789062 150.078125 C 2583.800781 120.078125 2624.488281 103.21875 2666.929688 103.21875 C 2755.289062 103.21875 2826.921875 174.859375 2826.921875 263.21875 Z M 2826.921875 263.21875 "/>
<path fill-rule="nonzero" fill="rgb(100%, 91.40625%, 86.326599%)" fill-opacity="1" d="M 504.417969 356.121094 C 504.417969 356.121094 -27.175781 454.179688 189.589844 459.339844 C 406.355469 464.5 788.28125 479.980469 494.097656 510.949219 C 199.914062 541.921875 -140.722656 619.328125 60.5625 603.851562 C 261.84375 588.371094 1567.609375 732.878906 1562.441406 634.820312 C 1557.289062 536.761719 798.601562 645.140625 943.113281 578.039062 C 1087.628906 510.949219 2145.648438 583.210938 1877.269531 526.429688 C 1608.898438 469.660156 1139.230469 521.269531 1232.140625 479.980469 C 1325.039062 438.691406 2615.308594 500.628906 2166.300781 433.53125 C 1717.28125 366.441406 943.113281 474.820312 1134.070312 407.730469 C 1325.039062 340.628906 1944.371094 371.601562 1706.960938 325.148438 C 1469.550781 278.699219 504.417969 356.121094 504.417969 356.121094 Z M 504.417969 356.121094 "/>
<path fill-rule="nonzero" fill="rgb(99.609375%, 49.804688%, 29.026794%)" fill-opacity="1" d="M 3.789062 842.683594 C 3.789062 842.683594 783.375 719.257812 1071.078125 542.929688 C 1358.78125 366.589844 1511.910156 785.132812 1776.421875 842.683594 C 2040.921875 900.234375 2350.871094 505.800781 2509.601562 505.800781 C 2732.378906 505.800781 3000 842.683594 3000 842.683594 L 3000 1685.367188 L 3.789062 1685.367188 Z M 3.789062 842.683594 "/>
<path fill-rule="nonzero" fill="rgb(78.90625%, 17.259216%, 24.705505%)" fill-opacity="1" d="M 3.789062 842.683594 C 3.789062 842.683594 384.300781 1067.289062 727.691406 918.796875 C 1071.078125 770.304688 1395.910156 1290.027344 1623.289062 1266.824219 C 1850.660156 1243.625 2116.101562 900.234375 2375.03125 900.234375 C 2658.089844 900.234375 2789.699219 1265.867188 3000 1264.027344 L 3000 1685.367188 L 3.789062 1685.367188 Z M 3.789062 842.683594 "/>
<path fill-rule="nonzero" fill="rgb(48.242188%, 0.392151%, 19.604492%)" fill-opacity="1" d="M 3000 1264.027344 C 3000 1264.027344 2416.789062 1577.730469 2245.101562 1368.914062 C 2073.398438 1160.097656 1799.621094 1058.007812 1586.160156 1155.457031 C 1372.699219 1252.902344 1006.109375 1429.238281 774.09375 1387.476562 C 542.074219 1345.710938 3.789062 1169.378906 3.789062 1169.378906 L 3.789062 1685.367188 L 3000 1685.367188 Z M 3000 1264.027344 "/>
<path fill-rule="nonzero" fill="rgb(18.041992%, 6.665039%, 17.651367%)" fill-opacity="1" d="M 3.789062 1356.207031 C 3.789062 1356.207031 683.6875 1329.445312 1080.980469 1329.445312 C 1497.121094 1329.445312 1526.128906 1524.058594 1706.808594 1475.640625 C 1986.148438 1400.792969 2305.371094 1327.148438 2504.960938 1327.148438 C 2705.359375 1327.148438 3000 1474.695312 3000 1474.695312 L 3000 1685.367188 L 3.789062 1685.367188 Z M 3.789062 1356.207031 "/>
<path fill-rule="nonzero" fill="rgb(18.041992%, 6.665039%, 17.651367%)" fill-opacity="1" d="M 427.847656 1184.625 C 419.800781 1184.625 413.320312 1191.128906 413.320312 1199.210938 L 413.320312 1238.78125 L 377.945312 1238.78125 L 377.945312 1205.09375 C 377.945312 1202.875 376.164062 1201.089844 373.953125 1201.089844 L 370.652344 1201.089844 C 368.441406 1201.089844 366.664062 1202.875 366.664062 1205.09375 L 366.664062 1242.613281 C 366.464844 1243.183594 366.359375 1243.800781 366.359375 1244.441406 C 366.359375 1245.105469 366.476562 1245.742188 366.6875 1246.335938 C 366.898438 1248.339844 368.566406 1249.890625 370.617188 1249.910156 C 371.082031 1250.03125 371.574219 1250.097656 372.082031 1250.097656 L 413.320312 1250.097656 L 413.320312 1347.800781 C 413.320312 1355.878906 419.800781 1362.386719 427.847656 1362.386719 C 435.898438 1362.386719 442.375 1355.878906 442.375 1347.800781 L 442.375 1280.628906 L 484.742188 1280.628906 C 485.285156 1280.628906 485.808594 1280.558594 486.308594 1280.429688 C 488.496094 1280.410156 490.277344 1278.75 490.503906 1276.613281 C 490.730469 1275.980469 490.855469 1275.296875 490.855469 1274.585938 C 490.855469 1273.902344 490.738281 1273.246094 490.527344 1272.632812 L 490.527344 1232.5625 C 490.527344 1230.191406 488.628906 1228.285156 486.265625 1228.285156 L 482.746094 1228.285156 C 480.382812 1228.285156 478.484375 1230.191406 478.484375 1232.5625 L 478.484375 1268.542969 L 442.375 1268.542969 L 442.375 1199.210938 C 442.375 1191.128906 435.898438 1184.625 427.847656 1184.625 Z M 427.847656 1184.625 "/>
<path fill-rule="nonzero" fill="rgb(18.041992%, 6.665039%, 17.651367%)" fill-opacity="1" d="M 2043.28125 1262.039062 C 2035.230469 1262.039062 2028.75 1268.546875 2028.75 1276.628906 L 2028.75 1316.199219 L 1993.371094 1316.199219 L 1993.371094 1282.511719 C 1993.371094 1280.292969 1991.589844 1278.503906 1989.378906 1278.503906 L 1986.078125 1278.503906 C 1983.871094 1278.503906 1982.089844 1280.292969 1982.089844 1282.511719 L 1982.089844 1320.027344 C 1981.890625 1320.601562 1981.789062 1321.214844 1981.789062 1321.855469 C 1981.789062 1322.523438 1981.898438 1323.160156 1982.121094 1323.753906 C 1982.328125 1325.753906 1984 1327.308594 1986.039062 1327.328125 C 1986.511719 1327.449219 1987 1327.515625 1987.511719 1327.515625 L 2028.75 1327.515625 L 2028.75 1425.214844 C 2028.75 1433.296875 2035.230469 1439.804688 2043.28125 1439.804688 C 2051.320312 1439.804688 2057.808594 1433.296875 2057.808594 1425.214844 L 2057.808594 1358.046875 L 2100.171875 1358.046875 C 2100.710938 1358.046875 2101.238281 1357.976562 2101.738281 1357.847656 C 2103.929688 1357.824219 2105.710938 1356.167969 2105.929688 1354.027344 C 2106.160156 1353.394531 2106.289062 1352.714844 2106.289062 1352.003906 C 2106.289062 1351.320312 2106.171875 1350.664062 2105.960938 1350.050781 L 2105.960938 1309.980469 C 2105.960938 1307.609375 2104.058594 1305.703125 2101.699219 1305.703125 L 2098.179688 1305.703125 C 2095.808594 1305.703125 2093.910156 1307.609375 2093.910156 1309.980469 L 2093.910156 1345.960938 L 2057.808594 1345.960938 L 2057.808594 1276.628906 C 2057.808594 1268.546875 2051.320312 1262.039062 2043.28125 1262.039062 Z M 2043.28125 1262.039062 "/>
<path fill-rule="nonzero" fill="rgb(78.90625%, 17.259216%, 24.705505%)" fill-opacity="1" d="M 902.671875 771.734375 C 894.621094 771.734375 888.144531 778.242188 888.144531 786.320312 L 888.144531 825.894531 L 852.765625 825.894531 L 852.765625 792.207031 C 852.765625 789.984375 850.988281 788.199219 848.777344 788.199219 L 845.476562 788.199219 C 843.265625 788.199219 841.484375 789.984375 841.484375 792.207031 L 841.484375 829.722656 C 841.289062 830.296875 841.179688 830.910156 841.179688 831.550781 C 841.179688 832.214844 841.296875 832.855469 841.507812 833.445312 C 841.71875 835.449219 843.390625 837.003906 845.4375 837.023438 C 845.90625 837.144531 846.398438 837.207031 846.90625 837.207031 L 888.144531 837.207031 L 888.144531 934.910156 C 888.144531 942.992188 894.621094 949.496094 902.671875 949.496094 C 910.71875 949.496094 917.199219 942.992188 917.199219 934.910156 L 917.199219 867.738281 L 959.5625 867.738281 C 960.105469 867.738281 960.632812 867.667969 961.132812 867.539062 C 963.316406 867.519531 965.101562 865.863281 965.328125 863.722656 C 965.550781 863.089844 965.675781 862.410156 965.675781 861.699219 C 965.675781 861.011719 965.5625 860.355469 965.351562 859.746094 L 965.351562 819.675781 C 965.351562 817.304688 963.449219 815.394531 961.089844 815.394531 L 957.566406 815.394531 C 955.207031 815.394531 953.304688 817.304688 953.304688 819.675781 L 953.304688 855.65625 L 917.199219 855.65625 L 917.199219 786.320312 C 917.199219 778.242188 910.71875 771.734375 902.671875 771.734375 Z M 902.671875 771.734375 "/>
<path fill-rule="nonzero" fill="rgb(78.90625%, 17.259216%, 24.705505%)" fill-opacity="1" d="M 2832.929688 1055.597656 C 2824.878906 1055.597656 2818.398438 1062.101562 2818.398438 1070.183594 L 2818.398438 1109.753906 L 2783.019531 1109.753906 L 2783.019531 1076.066406 C 2783.019531 1073.847656 2781.238281 1072.0625 2779.03125 1072.0625 L 2775.730469 1072.0625 C 2773.519531 1072.0625 2771.738281 1073.847656 2771.738281 1076.066406 L 2771.738281 1113.585938 C 2771.550781 1114.15625 2771.441406 1114.773438 2771.441406 1115.414062 C 2771.441406 1116.078125 2771.558594 1116.714844 2771.769531 1117.308594 C 2771.980469 1119.3125 2773.648438 1120.863281 2775.699219 1120.882812 C 2776.160156 1121.003906 2776.660156 1121.070312 2777.160156 1121.070312 L 2818.398438 1121.070312 L 2818.398438 1218.769531 C 2818.398438 1226.851562 2824.878906 1233.359375 2832.929688 1233.359375 C 2840.980469 1233.359375 2847.460938 1226.851562 2847.460938 1218.769531 L 2847.460938 1151.601562 L 2889.820312 1151.601562 C 2890.359375 1151.601562 2890.890625 1151.53125 2891.390625 1151.402344 C 2893.570312 1151.378906 2895.359375 1149.722656 2895.578125 1147.582031 C 2895.808594 1146.953125 2895.929688 1146.269531 2895.929688 1145.558594 C 2895.929688 1144.875 2895.820312 1144.21875 2895.609375 1143.605469 L 2895.609375 1103.535156 C 2895.609375 1101.164062 2893.710938 1099.257812 2891.351562 1099.257812 L 2887.820312 1099.257812 C 2885.46875 1099.257812 2883.558594 1101.164062 2883.558594 1103.535156 L 2883.558594 1139.515625 L 2847.460938 1139.515625 L 2847.460938 1070.183594 C 2847.460938 1062.101562 2840.980469 1055.597656 2832.929688 1055.597656 Z M 2832.929688 1055.597656 "/>
<path fill-rule="nonzero" fill="rgb(48.242188%, 0.392151%, 19.604492%)" fill-opacity="1" d="M 1630.390625 1014.308594 C 1622.339844 1014.308594 1615.859375 1020.8125 1615.859375 1028.894531 L 1615.859375 1068.464844 L 1580.480469 1068.464844 L 1580.480469 1034.777344 C 1580.480469 1032.558594 1578.699219 1030.773438 1576.488281 1030.773438 L 1573.191406 1030.773438 C 1570.980469 1030.773438 1569.199219 1032.558594 1569.199219 1034.777344 L 1569.199219 1072.296875 C 1569.011719 1072.867188 1568.898438 1073.484375 1568.898438 1074.125 C 1568.898438 1074.789062 1569.019531 1075.425781 1569.230469 1076.019531 C 1569.441406 1078.023438 1571.109375 1079.574219 1573.160156 1079.59375 C 1573.628906 1079.714844 1574.109375 1079.78125 1574.621094 1079.78125 L 1615.859375 1079.78125 L 1615.859375 1177.480469 C 1615.859375 1185.5625 1622.339844 1192.070312 1630.390625 1192.070312 C 1638.441406 1192.070312 1644.910156 1185.5625 1644.910156 1177.480469 L 1644.910156 1110.3125 L 1687.28125 1110.3125 C 1687.820312 1110.3125 1688.351562 1110.242188 1688.851562 1110.113281 C 1691.039062 1110.089844 1692.820312 1108.433594 1693.039062 1106.296875 C 1693.269531 1105.664062 1693.390625 1104.980469 1693.390625 1104.269531 C 1693.390625 1103.585938 1693.28125 1102.929688 1693.070312 1102.316406 L 1693.070312 1062.246094 C 1693.070312 1059.875 1691.171875 1057.96875 1688.808594 1057.96875 L 1685.289062 1057.96875 C 1682.929688 1057.96875 1681.019531 1059.875 1681.019531 1062.246094 L 1681.019531 1098.226562 L 1644.910156 1098.226562 L 1644.910156 1028.894531 C 1644.910156 1020.8125 1638.441406 1014.308594 1630.390625 1014.308594 Z M 1630.390625 1014.308594 "/>
<path fill-rule="nonzero" fill="rgb(18.041992%, 6.665039%, 17.651367%)" fill-opacity="1" d="M 679.320312 1140.21875 L 556.953125 1352.167969 L 801.691406 1352.167969 Z M 679.320312 1140.21875 "/>
<path fill-rule="nonzero" fill="rgb(48.242188%, 0.392151%, 19.604492%)" fill-opacity="1" d="M 1787.46875 1016.730469 L 1724.128906 1126.433594 L 1850.808594 1126.433594 Z M 1787.46875 1016.730469 "/>
<path fill-rule="nonzero" fill="rgb(98.4375%, 36.863708%, 0%)" fill-opacity="1" d="M 877.835938 1298.296875 C 877.835938 1298.296875 834.953125 1238.078125 854.113281 1244.464844 C 873.273438 1250.851562 881.484375 1278.222656 880.574219 1265.449219 C 879.660156 1252.675781 854.113281 1150.492188 872.359375 1176.039062 C 890.609375 1201.585938 905.207031 1210.707031 905.207031 1186.074219 C 905.207031 1161.441406 927.101562 1083.890625 926.191406 1142.28125 C 925.277344 1200.671875 906.117188 1249.941406 922.542969 1243.554688 C 938.964844 1237.167969 997.355469 1248.113281 966.335938 1269.097656 C 935.3125 1290.082031 907.945312 1314.71875 896.082031 1312.894531 C 884.222656 1311.066406 877.835938 1298.296875 877.835938 1298.296875 Z M 877.835938 1298.296875 "/>
<path fill-rule="nonzero" fill="rgb(18.041992%, 6.665039%, 17.651367%)" fill-opacity="1" d="M 869.886719 1313.949219 C 869.886719 1313.949219 898.464844 1324.367188 898.316406 1328.832031 C 898.167969 1333.296875 891.066406 1335.664062 891.066406 1335.664062 L 863.636719 1320.050781 Z M 869.886719 1313.949219 "/>
<path fill-rule="nonzero" fill="rgb(18.041992%, 6.665039%, 17.651367%)" fill-opacity="1" d="M 863.242188 1324.296875 C 863.242188 1324.296875 893.59375 1322.285156 895.257812 1326.433594 C 896.925781 1330.578125 891.386719 1335.609375 891.386719 1335.609375 L 859.988281 1332.40625 Z M 863.242188 1324.296875 "/>
<path fill-rule="nonzero" fill="rgb(18.041992%, 6.665039%, 17.651367%)" fill-opacity="1" d="M 917.863281 1314.398438 C 917.863281 1314.398438 888.847656 1323.519531 888.796875 1327.984375 C 888.742188 1332.453125 895.726562 1335.136719 895.726562 1335.136719 L 923.832031 1320.777344 Z M 917.863281 1314.398438 "/>
<path fill-rule="nonzero" fill="rgb(18.041992%, 6.665039%, 17.651367%)" fill-opacity="1" d="M 921.519531 1326.222656 C 921.519531 1326.222656 891.210938 1323.65625 889.46875 1327.769531 C 887.726562 1331.882812 893.171875 1337.015625 893.171875 1337.015625 L 924.625 1334.386719 Z M 921.519531 1326.222656 "/>
<path fill-rule="nonzero" fill="rgb(100%, 91.40625%, 86.326599%)" fill-opacity="1" d="M 880.558594 1306.96875 C 880.558594 1306.96875 865.6875 1288.410156 870.152344 1288.558594 C 874.617188 1288.707031 881.183594 1305.570312 882.089844 1294.898438 C 882.996094 1284.226562 856.902344 1252.097656 867.664062 1255.058594 C 878.425781 1258.019531 880.003906 1286.414062 885.363281 1275.550781 C 890.71875 1264.683594 874.683594 1219.425781 891.164062 1235.515625 C 907.640625 1251.601562 891.792969 1273.554688 899.484375 1276.992188 C 907.179688 1280.429688 938.433594 1257.804688 927.285156 1269.609375 C 916.140625 1281.410156 894.5 1288.527344 902.878906 1291.933594 C 911.261719 1295.34375 936.246094 1270.589844 928.65625 1285.324219 C 921.070312 1300.058594 904.074219 1311.429688 899.265625 1311.296875 C 894.457031 1311.164062 880.558594 1306.96875 880.558594 1306.96875 Z M 880.558594 1306.96875 "/>
<path fill-rule="nonzero" fill="rgb(99.609375%, 49.804688%, 29.026794%)" fill-opacity="1" d="M 445.214844 688.53125 C 441.414062 688.53125 438.351562 691.605469 438.351562 695.421875 L 438.351562 714.113281 L 421.640625 714.113281 L 421.640625 698.199219 C 421.640625 697.152344 420.800781 696.308594 419.757812 696.308594 L 418.199219 696.308594 C 417.152344 696.308594 416.3125 697.152344 416.3125 698.199219 L 416.3125 715.921875 C 416.21875 716.191406 416.167969 716.484375 416.167969 716.785156 C 416.167969 717.097656 416.222656 717.402344 416.324219 717.679688 C 416.425781 718.625 417.210938 719.359375 418.179688 719.367188 C 418.402344 719.425781 418.632812 719.457031 418.875 719.457031 L 438.351562 719.457031 L 438.351562 765.605469 C 438.351562 769.421875 441.414062 772.496094 445.214844 772.496094 C 449.015625 772.496094 452.078125 769.421875 452.078125 765.605469 L 452.078125 733.878906 L 472.085938 733.878906 C 472.34375 733.878906 472.589844 733.847656 472.828125 733.785156 C 473.859375 733.773438 474.703125 732.992188 474.808594 731.980469 C 474.917969 731.683594 474.976562 731.359375 474.976562 731.023438 C 474.976562 730.703125 474.921875 730.390625 474.820312 730.101562 L 474.820312 711.175781 C 474.820312 710.054688 473.921875 709.152344 472.808594 709.152344 L 471.144531 709.152344 C 470.03125 709.152344 469.132812 710.054688 469.132812 711.175781 L 469.132812 728.171875 L 452.078125 728.171875 L 452.078125 695.421875 C 452.078125 691.605469 449.015625 688.53125 445.214844 688.53125 Z M 445.214844 688.53125 "/>
<path fill-rule="nonzero" fill="rgb(78.90625%, 17.259216%, 24.705505%)" fill-opacity="1" d="M 1102.96875 922.023438 C 1102.96875 929.765625 1099.898438 937.191406 1094.421875 942.667969 C 1088.941406 948.144531 1081.519531 951.21875 1073.78125 951.21875 C 1066.039062 951.21875 1058.609375 948.144531 1053.128906 942.667969 C 1047.660156 937.191406 1044.578125 929.765625 1044.578125 922.023438 C 1044.578125 914.28125 1047.660156 906.855469 1053.128906 901.378906 C 1058.609375 895.902344 1066.039062 892.828125 1073.78125 892.828125 C 1081.519531 892.828125 1088.941406 895.902344 1094.421875 901.378906 C 1099.898438 906.855469 1102.96875 914.28125 1102.96875 922.023438 Z M 1102.96875 922.023438 "/>
<path fill-rule="nonzero" fill="rgb(99.609375%, 49.804688%, 29.026794%)" fill-opacity="1" d="M 2287.449219 604.609375 C 2287.449219 612.359375 2284.371094 619.78125 2278.898438 625.261719 C 2273.421875 630.730469 2266 633.808594 2258.25 633.808594 C 2242.128906 633.808594 2229.058594 620.738281 2229.058594 604.609375 C 2229.058594 588.488281 2242.128906 575.421875 2258.25 575.421875 C 2266 575.421875 2273.421875 578.5 2278.898438 583.96875 C 2284.371094 589.441406 2287.449219 596.871094 2287.449219 604.609375 Z M 2287.449219 604.609375 "/>
</svg>
