<?xml version="1.0" encoding="utf-8"?>
<!-- Generator: Adobe Illustrator 27.5.0, SVG Export Plug-In . SVG Version: 6.00 Build 0)  -->
<svg version="1.1" xmlns="http://www.w3.org/2000/svg" xmlns:xlink="http://www.w3.org/1999/xlink" x="0px" y="0px"
	 viewBox="0 0 1200 1200" style="enable-background:new 0 0 1200 1200;" xml:space="preserve">
<g id="Background">
	
		<radialGradient id="SVGID_1_" cx="633.0032" cy="600" r="1410.2168" gradientTransform="matrix(1.5 0 0 1 -300 0)" gradientUnits="userSpaceOnUse">
		<stop  offset="0.169" style="stop-color:#F5F5F5"/>
		<stop  offset="0.9919" style="stop-color:#C7C7C7"/>
	</radialGradient>
	<rect style="fill:url(#SVGID_1_);" width="1200" height="1200"/>
</g>
<g id="Graphic_Elements">
	<g>
		<defs>
			<rect id="SVGID_00000149368694116044902770000004773112895686509729_" width="1200" height="1200"/>
		</defs>
		<clipPath id="SVGID_00000163768883065967540400000012294861147589245331_">
			<use xlink:href="#SVGID_00000149368694116044902770000004773112895686509729_"  style="overflow:visible;"/>
		</clipPath>
		<g style="clip-path:url(#SVGID_00000163768883065967540400000012294861147589245331_);">
			<g>
				<path style="fill:#9EA5B0;" d="M1220.757,1075.085c0.711,0-70.422,140.843-70.422,140.843l-70.303-140.606L1220.757,1075.085z"
					/>
				<path style="fill:#55719E;" d="M1150.403,1215.928c-0.711,0,70.421-140.843,70.421-140.843l70.303,140.606L1150.403,1215.928z"
					/>
				<path style="fill:#CED2D8;" d="M1220.767,1075.085c-0.711,0,70.421-140.843,70.421-140.843l70.303,140.606L1220.767,1075.085z"
					/>
				<path style="fill:#CED0DD;" d="M1080.038,1357.008c-0.711,0,70.421-140.843,70.421-140.843l70.303,140.606L1080.038,1357.008z"
					/>
				<path style="fill:#2A4E86;" d="M1009.673,1215.928c-0.711,0,70.421-140.843,70.421-140.843l70.303,140.606L1009.673,1215.928z"
					/>
				<path style="fill:#7F95B6;" d="M1291.132,1215.928c-0.711,0,70.422-140.843,70.422-140.843l70.303,140.606L1291.132,1215.928z"
					/>
				<path style="fill:#3D4B61;" d="M1220.767,1356.771c-0.711,0,70.421-140.843,70.421-140.843l70.303,140.606L1220.767,1356.771z"
					/>
				<path style="fill:#152743;" d="M1291.122,1215.928c0.711,0-70.421,140.843-70.421,140.843l-70.303-140.606L1291.122,1215.928z"
					/>
				<path style="fill:#9EA5B0;" d="M1431.851,1215.928c0.711,0-70.421,140.843-70.421,140.843l-70.303-140.606L1431.851,1215.928z"
					/>
				<path style="fill:#0C1E39;" d="M1291.122,934.242c0.711,0-70.421,140.843-70.421,140.843l-70.303-140.606L1291.122,934.242z"/>
				<path style="fill:#7F95B6;" d="M1361.486,793.399c0.711,0-70.422,140.843-70.422,140.843l-70.303-140.606L1361.486,793.399z"/>
				<path style="fill:#7F95B6;" d="M1269.341,641.456c0.711,0-70.421,140.843-70.421,140.843l-70.303-140.606L1269.341,641.456z"/>
				<path style="fill:#7F95B6;" d="M1150.403,1497.614c-0.711,0,70.421-140.843,70.421-140.843l70.303,140.606L1150.403,1497.614z"
					/>
				<path style="fill:#2A4E86;" d="M1361.486,1075.085c0.711,0-70.422,140.843-70.422,140.843l-70.303-140.606L1361.486,1075.085z"
					/>
				<path style="fill:#9EA5B0;" d="M1127.138,923.142c0.711,0-70.421,140.843-70.421,140.843l-70.303-140.606L1127.138,923.142z"/>
				
					<linearGradient id="SVGID_00000169556849193167657660000000131634051533526191_" gradientUnits="userSpaceOnUse" x1="1127.1434" y1="852.7202" x2="1267.873" y2="852.7202">
					<stop  offset="0.169" style="stop-color:#F5F5F5"/>
					<stop  offset="0.9919" style="stop-color:#C7C7C7"/>
				</linearGradient>
				<path style="fill:url(#SVGID_00000169556849193167657660000000131634051533526191_);" d="M1127.149,923.142
					c-0.711,0,70.422-140.843,70.422-140.843l70.303,140.606L1127.149,923.142z"/>
				<path style="fill:#CED0DD;" d="M1056.784,1063.984c-0.711,0,70.421-140.843,70.421-140.843l70.303,140.606L1056.784,1063.984z"
					/>
				<path style="fill:#0C1E39;" d="M1197.503,782.299c0.711,0-70.422,140.843-70.422,140.843l-70.303-140.606L1197.503,782.299z"/>
			</g>
			<g>
				<path style="fill:#9EA5B0;" d="M-71.187-22.633c0.711,0-70.421,140.843-70.421,140.843l-70.303-140.606L-71.187-22.633z"/>
				<path style="fill:#3D4B61;" d="M210.272-22.633c0.711,0-70.421,140.843-70.421,140.843L69.548-22.396L210.272-22.633z"/>
				<path style="fill:#55719E;" d="M-141.541,118.21c-0.711,0,70.422-140.843,70.422-140.843l70.303,140.606L-141.541,118.21z"/>
				<path style="fill:#CED2D8;" d="M-71.176-22.633c-0.711,0,70.421-140.843,70.421-140.843L69.548-22.87L-71.176-22.633z"/>
				<path style="fill:#CED0DD;" d="M-211.906,259.29c-0.711,0,70.421-140.843,70.421-140.843l70.303,140.606L-211.906,259.29z"/>
				<path style="fill:#2A4E86;" d="M-282.271,118.21c-0.711,0,70.421-140.843,70.421-140.843l70.303,140.606L-282.271,118.21z"/>
				<path style="fill:#7F95B6;" d="M-0.812,118.21c-0.711,0,70.421-140.843,70.421-140.843l70.303,140.606L-0.812,118.21z"/>
				<path style="fill:#3D4B61;" d="M-71.176,259.053c-0.711,0,70.421-140.843,70.421-140.843l70.303,140.606L-71.176,259.053z"/>
				<path style="fill:#152743;" d="M-0.822,118.21c0.711,0-70.421,140.843-70.421,140.843l-70.303-140.606L-0.822,118.21z"/>
				<path style="fill:#9EA5B0;" d="M139.907,118.21c0.711,0-70.422,140.843-70.422,140.843L-0.817,118.447L139.907,118.21z"/>
				<path style="fill:#2A4E86;" d="M69.543,259.053c0.711,0-70.421,140.843-70.421,140.843L-71.182,259.29L69.543,259.053z"/>
				<path style="fill:#0C1E39;" d="M-0.822-163.476c0.711,0-70.421,140.843-70.421,140.843l-70.303-140.606L-0.822-163.476z"/>
				<path style="fill:#2A4E86;" d="M139.907-163.476c0.711,0-70.422,140.843-70.422,140.843L-0.817-163.239L139.907-163.476z"/>
				<path style="fill:#0C1E39;" d="M69.553,259.053c-0.711,0,70.421-140.843,70.421-140.843l70.303,140.606L69.553,259.053z"/>
				
					<linearGradient id="SVGID_00000147187206047583480350000011628047505744478372_" gradientUnits="userSpaceOnUse" x1="90.8876" y1="-103.7243" x2="231.6172" y2="-103.7243">
					<stop  offset="0.169" style="stop-color:#F5F5F5"/>
					<stop  offset="0.9919" style="stop-color:#C7C7C7"/>
				</linearGradient>
				<path style="fill:url(#SVGID_00000147187206047583480350000011628047505744478372_);" d="M90.893-33.303
					c-0.711,0,70.422-140.843,70.422-140.843L231.617-33.54L90.893-33.303z"/>
				<path style="fill:#3D4B61;" d="M-71.176,540.976c-0.711,0,70.421-140.843,70.421-140.843l70.303,140.606L-71.176,540.976z"/>
				<path style="fill:#2A4E86;" d="M69.543-22.633c0.711,0-70.421,140.843-70.421,140.843L-71.182-22.396L69.543-22.633z"/>
			</g>
		</g>
	</g>
</g>
</svg>
