<?xml version="1.0" encoding="UTF-8"?>
<svg id="uuid-5a94620d-f020-49ab-be3c-c7f7a71a4f3e" data-name="Ñëîé 1" xmlns="http://www.w3.org/2000/svg" xmlns:xlink="http://www.w3.org/1999/xlink" viewBox="0 0 2125.98 881.66">
  <defs>
    <style>
      .uuid-2d59edea-54bb-45f7-ae7a-a145cfd1842a {
        fill: #c4c4c4;
      }

      .uuid-2d59edea-54bb-45f7-ae7a-a145cfd1842a, .uuid-2baea171-2828-4868-8b24-587eac9bc782, .uuid-69632fcd-13e9-46cf-b619-0328bb8fff72, .uuid-b0ff8db2-e202-454f-9748-1615fe22d216, .uuid-c78cf25e-e19f-4466-a99d-8d6022d626ac {
        stroke-width: 0px;
      }

      .uuid-2baea171-2828-4868-8b24-587eac9bc782 {
        fill: #bab0b0;
      }

      .uuid-69632fcd-13e9-46cf-b619-0328bb8fff72 {
        fill: #979797;
      }

      .uuid-b0ff8db2-e202-454f-9748-1615fe22d216 {
        fill: #6bb9bf;
      }

      .uuid-acd3f302-8c04-4b7a-b46a-269b6ec9b991, .uuid-c78cf25e-e19f-4466-a99d-8d6022d626ac {
        fill: #fff;
      }

      .uuid-28af141d-902f-4707-836d-24c2ff674cb9 {
        clip-path: url(#uuid-37922230-9508-4fa3-ae4f-8de10845c424);
      }
    </style>
    <clipPath id="uuid-e8cc31ea-b93a-48e7-8b7b-957d857b8f6f">
      <rect class="uuid-c78cf25e-e19f-4466-a99d-8d6022d626ac" x="-2004.89" y="188.33" width="1682.5" height="505"/>
    </clipPath>
    <clipPath id="uuid-37922230-9508-4fa3-ae4f-8de10845c424">
      <rect class="uuid-c78cf25e-e19f-4466-a99d-8d6022d626ac" x="221.74" y="188.33" width="1682.5" height="505"/>
    </clipPath>
  </defs>
  <rect class="uuid-acd3f302-8c04-4b7a-b46a-269b6ec9b991" x="-2004.89" y="188.33" width="1682.5" height="505"/>
  <g>
    <rect class="uuid-2d59edea-54bb-45f7-ae7a-a145cfd1842a" x="0" width="2125.98" height="881.66"/>
    <rect class="uuid-69632fcd-13e9-46cf-b619-0328bb8fff72" x="251.74" y="218.33" width="1682.5" height="505"/>
    <g>
      <rect class="uuid-acd3f302-8c04-4b7a-b46a-269b6ec9b991" x="221.74" y="188.33" width="1682.5" height="505"/>
      <g class="uuid-28af141d-902f-4707-836d-24c2ff674cb9">
        <g>
          <polygon class="uuid-2baea171-2828-4868-8b24-587eac9bc782" points="1117.55 -163.93 1150.84 -49.51 1068.42 36.52 952.68 8.17 919.39 -106.24 1001.81 -192.28 1117.55 -163.93"/>
          <polygon class="uuid-2baea171-2828-4868-8b24-587eac9bc782" points="1271.82 -16.15 1305.11 98.27 1222.69 184.3 1106.95 155.96 1073.66 41.54 1156.07 -44.5 1271.82 -16.15"/>
          <polygon class="uuid-2baea171-2828-4868-8b24-587eac9bc782" points="1426.08 131.64 1459.37 246.05 1376.96 332.09 1261.21 303.74 1227.92 189.32 1310.34 103.29 1426.08 131.64"/>
          <polygon class="uuid-2baea171-2828-4868-8b24-587eac9bc782" points="1580.37 279.44 1613.66 393.85 1531.24 479.89 1415.5 451.54 1382.19 337.1 1464.61 251.07 1580.37 279.44"/>
          <polygon class="uuid-2baea171-2828-4868-8b24-587eac9bc782" points="1734.63 427.22 1767.92 541.64 1685.5 627.67 1569.76 599.32 1536.47 484.9 1618.89 398.87 1734.63 427.22"/>
          <polygon class="uuid-2baea171-2828-4868-8b24-587eac9bc782" points="1477.67 -76.63 1510.96 37.79 1428.55 123.82 1312.8 95.47 1279.52 -18.95 1361.93 -104.98 1477.67 -76.63"/>
          <polygon class="uuid-2baea171-2828-4868-8b24-587eac9bc782" points="1786.22 218.95 1819.51 333.37 1737.1 419.4 1621.35 391.05 1588.07 276.64 1670.48 190.61 1786.22 218.95"/>
          <polygon class="uuid-2baea171-2828-4868-8b24-587eac9bc782" points="1683.53 -137.11 1716.82 -22.69 1634.4 63.34 1518.66 34.99 1485.37 -79.42 1567.79 -165.46 1683.53 -137.11"/>
          <polygon class="uuid-2baea171-2828-4868-8b24-587eac9bc782" points="1992.08 158.47 2025.37 272.89 1942.95 358.92 1827.21 330.57 1793.92 216.16 1876.34 130.13 1992.08 158.47"/>
          <polygon class="uuid-2baea171-2828-4868-8b24-587eac9bc782" points="1889.39 -197.59 1922.7 -83.15 1840.28 2.88 1724.52 -25.49 1691.23 -139.9 1773.65 -225.94 1889.39 -197.59"/>
        </g>
        <polygon class="uuid-2baea171-2828-4868-8b24-587eac9bc782" points="829.68 622.72 862.97 737.14 780.55 823.17 664.81 794.82 631.52 680.4 713.94 594.37 829.68 622.72"/>
        <polygon class="uuid-2baea171-2828-4868-8b24-587eac9bc782" points="691.19 89.77 724.48 204.19 642.06 290.22 526.32 261.87 493.01 147.44 575.43 61.4 691.19 89.77"/>
        <polygon class="uuid-2baea171-2828-4868-8b24-587eac9bc782" points="1346.1 552.14 1379.39 666.56 1296.97 752.59 1181.23 724.24 1147.94 609.82 1230.36 523.79 1346.1 552.14"/>
        <polygon class="uuid-2baea171-2828-4868-8b24-587eac9bc782" points="881.27 414.46 914.56 528.88 832.14 614.91 716.4 586.56 683.11 472.14 765.53 386.11 881.27 414.46"/>
        <polygon class="uuid-2baea171-2828-4868-8b24-587eac9bc782" points="1035.53 562.24 1068.84 676.67 986.42 762.7 870.67 734.34 837.38 619.92 919.79 533.89 1035.53 562.24"/>
        <polygon class="uuid-2baea171-2828-4868-8b24-587eac9bc782" points="1164.99 272.69 1198.29 387.11 1115.87 473.14 1000.13 444.79 966.84 330.37 1049.25 244.34 1164.99 272.69"/>
        <polygon class="uuid-2baea171-2828-4868-8b24-587eac9bc782" points="642.05 330.73 675.34 445.15 592.92 531.18 477.18 502.83 443.89 388.41 526.31 302.38 642.05 330.73"/>
        <g>
          <g>
            <path class="uuid-b0ff8db2-e202-454f-9748-1615fe22d216" d="M768.29,226.24l-88.22,92.09-123.86-30.35-35.64-122.45,88.22-92.09,123.86,30.36,35.64,122.45ZM677.74,310.29l82.43-86.04-33.3-114.41-115.73-28.36-82.43,86.04,33.3,114.41,115.73,28.36Z"/>
            <path class="uuid-b0ff8db2-e202-454f-9748-1615fe22d216" d="M922.57,374.03l-88.22,92.09-123.86-30.36-35.64-122.45,88.22-92.09,123.86,30.36,35.64,122.45ZM832.01,458.08l82.43-86.05-33.3-114.41-115.73-28.36-82.43,86.05,33.3,114.41,115.73,28.36Z"/>
            <path class="uuid-b0ff8db2-e202-454f-9748-1615fe22d216" d="M1076.84,521.81l-88.22,92.09-123.86-30.36-35.64-122.45,88.22-92.09,123.86,30.36,35.64,122.45ZM986.28,605.87l82.43-86.05-33.3-114.41-115.73-28.36-82.43,86.05,33.3,114.41,115.73,28.36Z"/>
            <path class="uuid-b0ff8db2-e202-454f-9748-1615fe22d216" d="M1231.11,669.6l-88.22,92.09-123.86-30.36-35.64-122.45,88.22-92.09,123.86,30.36,35.64,122.45ZM1140.55,753.65l82.43-86.05-33.3-114.41-115.73-28.36-82.43,86.04,33.3,114.41,115.73,28.37Z"/>
            <path class="uuid-b0ff8db2-e202-454f-9748-1615fe22d216" d="M1385.38,817.39l-88.22,92.09-123.86-30.35-35.64-122.45,88.22-92.09,123.86,30.36,35.64,122.45ZM1294.82,901.44l82.43-86.05-33.3-114.41-115.73-28.36-82.43,86.04,33.3,114.41,115.73,28.36Z"/>
            <path class="uuid-b0ff8db2-e202-454f-9748-1615fe22d216" d="M1128.43,313.55l-88.22,92.09-123.86-30.36-35.64-122.45,88.22-92.09,123.86,30.36,35.64,122.45ZM1037.87,397.6l82.43-86.04-33.3-114.41-115.73-28.36-82.43,86.04,33.3,114.41,115.73,28.36Z"/>
            <path class="uuid-b0ff8db2-e202-454f-9748-1615fe22d216" d="M1591.24,756.91l-88.22,92.09-123.86-30.36-35.64-122.44,88.22-92.09,123.86,30.36,35.64,122.45ZM1500.68,840.96l82.43-86.04-33.3-114.41-115.73-28.36-82.43,86.04,33.3,114.41,115.73,28.36Z"/>
            <path class="uuid-b0ff8db2-e202-454f-9748-1615fe22d216" d="M1180.02,105.28l-88.22,92.09-123.86-30.36-35.64-122.45,88.22-92.09,123.86,30.36,35.64,122.45ZM1089.46,189.33l82.43-86.04-33.3-114.41-115.73-28.37-82.43,86.04,33.3,114.41,115.73,28.36Z"/>
            <path class="uuid-b0ff8db2-e202-454f-9748-1615fe22d216" d="M1334.29,253.07l-88.22,92.09-123.86-30.36-35.64-122.45,88.22-92.09,123.86,30.36,35.64,122.44ZM1243.73,337.12l82.43-86.05-33.3-114.41-115.73-28.36-82.43,86.04,33.3,114.41,115.73,28.36Z"/>
            <path class="uuid-b0ff8db2-e202-454f-9748-1615fe22d216" d="M1642.83,548.64l-88.22,92.09-123.86-30.35-35.64-122.45,88.22-92.09,123.86,30.36,35.64,122.45ZM1552.27,632.69l82.43-86.05-33.3-114.41-115.73-28.36-82.43,86.05,33.3,114.41,115.73,28.36Z"/>
            <path class="uuid-b0ff8db2-e202-454f-9748-1615fe22d216" d="M1385.88,44.8l-88.22,92.09-123.87-30.35-35.64-122.45,88.22-92.09,123.86,30.35,35.64,122.45ZM1295.32,128.86l82.43-86.04-33.3-114.41-115.73-28.36-82.43,86.05,33.3,114.41,115.73,28.36Z"/>
            <path class="uuid-b0ff8db2-e202-454f-9748-1615fe22d216" d="M1694.42,340.38l-88.22,92.09-123.87-30.36-35.64-122.45,88.22-92.09,123.86,30.36,35.64,122.45ZM1603.86,424.43l82.43-86.04-33.3-114.41-115.73-28.36-82.43,86.05,33.3,114.41,115.73,28.36Z"/>
            <path class="uuid-b0ff8db2-e202-454f-9748-1615fe22d216" d="M1848.69,488.16l-88.22,92.09-123.86-30.35-35.64-122.45,88.22-92.09,123.86,30.35,35.64,122.45ZM1758.13,572.22l82.43-86.05-33.3-114.41-115.73-28.36-82.43,86.04,33.3,114.41,115.73,28.36Z"/>
          </g>
          <g>
            <path class="uuid-b0ff8db2-e202-454f-9748-1615fe22d216" d="M1306.95,121.96c7.37,7.06,7.62,18.75.56,26.12-7.06,7.37-18.75,7.62-26.12.56-7.37-7.06-7.62-18.75-.56-26.12,7.06-7.37,18.75-7.62,26.12-.56Z"/>
            <path class="uuid-b0ff8db2-e202-454f-9748-1615fe22d216" d="M948.4,32.99c7.37,7.06,7.62,18.75.56,26.12-7.06,7.37-18.75,7.62-26.12.56-7.37-7.06-7.62-18.75-.56-26.12,7.06-7.37,18.75-7.62,26.12-.56Z"/>
            <path class="uuid-b0ff8db2-e202-454f-9748-1615fe22d216" d="M1408.61,473.87c7.37,7.06,7.62,18.75.56,26.12-7.06,7.37-18.75,7.62-26.12.56-7.37-7.06-7.62-18.75-.56-26.12,7.06-7.37,18.75-7.62,26.12-.56Z"/>
            <path class="uuid-b0ff8db2-e202-454f-9748-1615fe22d216" d="M929.08,356.11c7.37,7.06,7.62,18.75.56,26.12-7.06,7.37-18.75,7.62-26.12.56-7.37-7.06-7.62-18.75-.56-26.12,7.06-7.37,18.75-7.62,26.12-.56Z"/>
            <path class="uuid-b0ff8db2-e202-454f-9748-1615fe22d216" d="M899.18,230.63c7.37,7.06,7.62,18.76.56,26.12-7.06,7.37-18.75,7.62-26.12.56-7.37-7.06-7.62-18.75-.56-26.12,7.06-7.37,18.75-7.62,26.12-.56Z"/>
            <path class="uuid-b0ff8db2-e202-454f-9748-1615fe22d216" d="M1137.88,298.44c7.37,7.06,7.62,18.75.56,26.12-7.06,7.37-18.75,7.62-26.12.56-7.37-7.06-7.62-18.75-.56-26.12,7.06-7.37,18.75-7.62,26.12-.56Z"/>
            <path class="uuid-b0ff8db2-e202-454f-9748-1615fe22d216" d="M1208.45,545.18c7.37,7.06,7.62,18.75.56,26.12-7.06,7.37-18.75,7.62-26.12.56-7.37-7.06-7.62-18.75-.56-26.12,7.06-7.37,18.75-7.62,26.12-.56Z"/>
            <path class="uuid-b0ff8db2-e202-454f-9748-1615fe22d216" d="M1359.62,684.62c7.37,7.06,7.62,18.75.56,26.12-7.06,7.37-18.75,7.62-26.12.56-7.37-7.06-7.62-18.75-.56-26.12,7.06-7.37,18.75-7.62,26.12-.56Z"/>
            <path class="uuid-b0ff8db2-e202-454f-9748-1615fe22d216" d="M1246.36,660.05c7.37,7.06,7.62,18.75.56,26.12-7.06,7.37-18.75,7.62-26.12.56-7.37-7.06-7.62-18.75-.56-26.12,7.06-7.37,18.75-7.62,26.12-.56Z"/>
            <path class="uuid-b0ff8db2-e202-454f-9748-1615fe22d216" d="M1490.46,378.52c7.37,7.06,7.62,18.75.56,26.12-7.06,7.37-18.75,7.62-26.12.56-7.37-7.06-7.62-18.75-.56-26.12,7.06-7.37,18.75-7.62,26.12-.56Z"/>
            <path class="uuid-b0ff8db2-e202-454f-9748-1615fe22d216" d="M1704.48,330.99c7.37,7.06,7.62,18.75.56,26.12-7.06,7.37-18.75,7.62-26.12.56-7.37-7.06-7.62-18.75-.56-26.12s18.75-7.62,26.12-.56Z"/>
          </g>
        </g>
        <g>
          <g>
            <path class="uuid-b0ff8db2-e202-454f-9748-1615fe22d216" d="M338.33,548.91c-5.49-5.11-13.76-7.8-25.38-7.8-6.4,0-12.26.56-17.18,1.3v12.07h8.08v-6.12c2.13-.46,5.3-.84,9.48-.84,17.09,0,25.45,9.39,25.36,24.16,0,16.91-9.39,26.57-26.67,26.57-3.15,0-6.13-.09-8.17-.46v-2.34h-8.08v8.55c4.08.47,8.92.75,14.68.75,12.17,0,21.83-3.15,27.69-9.01,5.84-5.76,9.01-14.12,9.01-24.35s-3.25-17.37-8.82-22.48ZM303.85,565.91h-8.08v10.64h8.08v-10.64Z"/>
            <path class="uuid-b0ff8db2-e202-454f-9748-1615fe22d216" d="M357.68,580.04v24.14h7.61v-24.14h-7.61ZM397.99,593.51l-.18.09c-2.97-6.4-6.61-13.01-11.25-20.36l-20.07-31.68h-8.82v27.04h7.55c-.08-6.21-.25-11.51-.58-17l.28-.09c3.16,6.77,7.34,13.93,11.7,20.9l19.89,31.77h8.18v-35.1h-7.62c.01,9.14.23,16.43.93,24.42ZM397.07,541.57v16.09h7.62v-16.09h-7.62Z"/>
            <path class="uuid-b0ff8db2-e202-454f-9748-1615fe22d216" d="M445.13,541.57h-9.76l-21.27,62.62h8.36l6.5-19.7h6.89v-6.31h-5.22l6.14-18.12c1.21-3.8,2.22-7.62,3.15-11.33h.19c.93,3.62,1.86,7.35,3.25,11.44l6.13,18.02h-3.95v6.31h5.63l6.7,19.7h8.64l-21.37-62.62Z"/>
          </g>
          <g>
            <path class="uuid-b0ff8db2-e202-454f-9748-1615fe22d216" d="M296.97,629.66l-3.72-11.62h2.88l1.41,4.91c.4,1.38.76,2.71,1.03,4.15h.05c.29-1.4.65-2.77,1.05-4.1l1.48-4.96h2.79l-3.91,11.62h-3.07Z"/>
            <path class="uuid-b0ff8db2-e202-454f-9748-1615fe22d216" d="M312.1,624.75h-4.27v2.76h4.77v2.15h-7.41v-11.62h7.17v2.16h-4.53v2.41h4.27v2.14Z"/>
            <path class="uuid-b0ff8db2-e202-454f-9748-1615fe22d216" d="M322.93,629.33c-.48.24-1.57.5-2.98.5-4.02,0-6.08-2.5-6.08-5.81,0-3.96,2.83-6.17,6.34-6.17,1.36,0,2.39.28,2.86.52l-.54,2.08c-.53-.22-1.28-.43-2.21-.43-2.09,0-3.71,1.26-3.71,3.84,0,2.33,1.38,3.79,3.72,3.79.79,0,1.67-.17,2.19-.38l.4,2.05Z"/>
            <path class="uuid-b0ff8db2-e202-454f-9748-1615fe22d216" d="M327.14,620.25h-3.12v-2.21h8.93v2.21h-3.17v9.41h-2.64v-9.41Z"/>
            <path class="uuid-b0ff8db2-e202-454f-9748-1615fe22d216" d="M344.48,623.73c0,3.81-2.31,6.12-5.7,6.12s-5.46-2.6-5.46-5.91c0-3.48,2.22-6.08,5.65-6.08s5.52,2.67,5.52,5.88ZM336.09,623.89c0,2.28,1.07,3.88,2.83,3.88s2.79-1.69,2.79-3.95c0-2.08-1-3.88-2.81-3.88s-2.81,1.69-2.81,3.95Z"/>
            <path class="uuid-b0ff8db2-e202-454f-9748-1615fe22d216" d="M346.21,618.2c.84-.14,2.1-.24,3.5-.24,1.72,0,2.93.26,3.76.91.69.55,1.07,1.36,1.07,2.43,0,1.48-1.05,2.5-2.05,2.86v.05c.81.33,1.26,1.11,1.55,2.17.36,1.31.72,2.82.95,3.27h-2.69c-.19-.33-.46-1.28-.81-2.71-.31-1.45-.81-1.84-1.88-1.86h-.79v4.57h-2.6v-11.46ZM348.81,623.2h1.03c1.31,0,2.09-.66,2.09-1.67,0-1.07-.72-1.6-1.93-1.62-.64,0-1,.05-1.19.09v3.21Z"/>
            <path class="uuid-b0ff8db2-e202-454f-9748-1615fe22d216" d="M362.55,618.04v11.62h-2.63v-11.62h2.63Z"/>
            <path class="uuid-b0ff8db2-e202-454f-9748-1615fe22d216" d="M364.83,618.04h2.64v9.41h4.62v2.21h-7.26v-11.62Z"/>
            <path class="uuid-b0ff8db2-e202-454f-9748-1615fe22d216" d="M373.64,618.04h2.64v9.41h4.62v2.21h-7.26v-11.62Z"/>
            <path class="uuid-b0ff8db2-e202-454f-9748-1615fe22d216" d="M384.54,618.04v6.69c0,2,.76,3.01,2.1,3.01s2.14-.96,2.14-3.01v-6.69h2.62v6.51c0,3.58-1.81,5.29-4.84,5.29s-4.65-1.62-4.65-5.33v-6.48h2.64Z"/>
            <path class="uuid-b0ff8db2-e202-454f-9748-1615fe22d216" d="M393.76,626.95c.71.36,1.79.72,2.91.72,1.21,0,1.84-.5,1.84-1.26s-.55-1.14-1.95-1.64c-1.93-.67-3.19-1.74-3.19-3.43,0-1.98,1.65-3.5,4.39-3.5,1.31,0,2.28.28,2.96.59l-.59,2.12c-.47-.22-1.29-.55-2.43-.55s-1.69.52-1.69,1.12c0,.74.65,1.07,2.15,1.64,2.05.76,3.02,1.83,3.02,3.46,0,1.95-1.5,3.6-4.69,3.6-1.33,0-2.64-.35-3.29-.71l.53-2.17Z"/>
            <path class="uuid-b0ff8db2-e202-454f-9748-1615fe22d216" d="M405.23,620.25h-3.12v-2.21h8.93v2.21h-3.17v9.41h-2.64v-9.41Z"/>
            <path class="uuid-b0ff8db2-e202-454f-9748-1615fe22d216" d="M412.44,618.2c.84-.14,2.1-.24,3.5-.24,1.72,0,2.93.26,3.76.91.69.55,1.07,1.36,1.07,2.43,0,1.48-1.05,2.5-2.05,2.86v.05c.81.33,1.26,1.11,1.55,2.17.36,1.31.72,2.82.95,3.27h-2.69c-.19-.33-.46-1.28-.81-2.71-.31-1.45-.81-1.84-1.88-1.86h-.79v4.57h-2.6v-11.46ZM415.04,623.2h1.03c1.31,0,2.09-.66,2.09-1.67,0-1.07-.72-1.6-1.93-1.62-.64,0-1,.05-1.19.09v3.21Z"/>
            <path class="uuid-b0ff8db2-e202-454f-9748-1615fe22d216" d="M425.52,626.68l-.83,2.98h-2.72l3.55-11.62h3.45l3.6,11.62h-2.83l-.9-2.98h-3.33ZM428.47,624.71l-.72-2.46c-.21-.69-.41-1.55-.59-2.24h-.03c-.17.69-.35,1.57-.54,2.24l-.69,2.46h2.57Z"/>
            <path class="uuid-b0ff8db2-e202-454f-9748-1615fe22d216" d="M434.93,620.25h-3.12v-2.21h8.93v2.21h-3.17v9.41h-2.64v-9.41Z"/>
            <path class="uuid-b0ff8db2-e202-454f-9748-1615fe22d216" d="M444.78,618.04v11.62h-2.64v-11.62h2.64Z"/>
            <path class="uuid-b0ff8db2-e202-454f-9748-1615fe22d216" d="M457.69,623.73c0,3.81-2.31,6.12-5.7,6.12s-5.46-2.6-5.46-5.91c0-3.48,2.22-6.08,5.65-6.08s5.52,2.67,5.52,5.88ZM449.3,623.89c0,2.28,1.07,3.88,2.83,3.88s2.79-1.69,2.79-3.95c0-2.08-1-3.88-2.81-3.88s-2.81,1.69-2.81,3.95Z"/>
            <path class="uuid-b0ff8db2-e202-454f-9748-1615fe22d216" d="M459.42,629.66v-11.62h3.07l2.41,4.26c.69,1.22,1.38,2.67,1.89,3.98h.05c-.17-1.53-.22-3.1-.22-4.84v-3.39h2.41v11.62h-2.76l-2.48-4.48c-.69-1.24-1.45-2.74-2.02-4.1l-.05.02c.07,1.54.1,3.17.1,5.07v3.5h-2.41Z"/>
          </g>
        </g>
      </g>
    </g>
  </g>
</svg>